<?xml version="1.0" encoding="utf-8" ?>
<svg xmlns="http://www.w3.org/2000/svg" xmlns:xlink="http://www.w3.org/1999/xlink" width="512" height="512">
	<path fill="#8CF" transform="scale(0.666667 0.666667)" d="M513.879 718.315C515.125 720.7 517.033 723.491 517.786 726.029C517.508 726.244 516.859 726.889 516.562 726.975C514.65 727.529 511.618 727.315 509.569 727.49C503.592 728.003 497.032 729.527 491.065 728.888L489.907 728.7C490.849 727.499 492.45 726.376 493.594 725.332C500.733 723.584 507.2 721.42 513.879 718.315Z"/>
	<path fill="#D3EEFA" fill-opacity="0.96862745" transform="scale(0.666667 0.666667)" d="M183.195 88.6627C186.661 88.8561 190.532 89.2972 193.947 88.6342C194.82 91.6297 194.288 95.3346 194.264 98.4375L194.251 115.49C193.387 115.655 192.444 115.568 191.564 115.563C188.518 115.586 169.589 114.891 168.498 115.775L168.301 116.03C167.321 116.351 166.517 116.653 165.466 116.557L165.414 116.152C165.4 114.914 166.175 113.389 166.634 112.248C169.043 106.256 172.564 100.153 176.675 95.1838C178.614 92.8411 180.956 90.7215 183.195 88.6627Z"/>
	<defs>
		<linearGradient id="gradient_0" gradientUnits="userSpaceOnUse" x1="172.60289" y1="128.03497" x2="191.29674" y2="125.92117">
			<stop offset="0" stop-color="white" stop-opacity="0.75294119"/>
			<stop offset="1" stop-color="white" stop-opacity="0.84313726"/>
		</linearGradient>
	</defs>
	<path fill="url(#gradient_0)" transform="scale(0.666667 0.666667)" d="M168.301 116.03L168.498 115.775C169.589 114.891 188.518 115.586 191.564 115.563C192.444 115.568 193.387 115.655 194.251 115.49L194.244 135.093L194.247 138.841C191.529 138.518 188.456 138.784 185.691 138.776L168.322 138.649C169.97 138.481 171.608 138.384 173.193 137.876C172.76 137.566 172.549 137.364 172.364 136.856C171.571 134.675 169.271 133.379 167.549 131.904C166.522 129.487 165.368 124.468 166.335 121.989C167.102 120.025 168.012 118.621 168.259 116.45L168.301 116.03Z"/>
	<path fill="#FEFEFF" transform="scale(0.666667 0.666667)" d="M191.564 115.563C192.444 115.568 193.387 115.655 194.251 115.49L194.244 135.093C193.812 135.038 193.37 135.082 193.022 134.789C191.735 133.706 191.92 130.836 191.636 129.27C191.164 126.67 192.284 124.248 192.57 121.688C192.8 119.629 192.172 117.51 191.564 115.563Z"/>
	<path fill="#0093FF" transform="scale(0.666667 0.666667)" d="M630.134 666.845L633.733 664.925L645.978 673.119C650.154 676.122 654.753 680.499 659.314 682.685C668.595 689.299 676.233 697.814 678.182 709.342L678.436 711.011L645.981 714.431C646.324 704.454 644.311 695.627 640.934 686.271C639.479 682.241 637.992 678.219 635.793 674.525C634.166 671.792 632.124 669.318 630.134 666.845Z"/>
	<path fill="#1B5CEE" transform="scale(0.666667 0.666667)" d="M171.071 52.7235C173.748 49.0596 178.069 46.8239 182.27 45.3523C188.031 43.3344 194.354 43.4874 199.88 46.1015C205.198 50.1737 209.088 54.8177 209.965 61.6911C210.419 65.2496 210.504 68.9091 210.124 72.4797C208.643 78.2622 205.484 83.1395 200.276 86.2087C199.215 86.8342 198.043 87.5868 196.8 87.6831C195.693 87.8838 194.924 88.094 193.924 88.6066L193.947 88.6342C190.532 89.2972 186.661 88.8561 183.195 88.6627C180.536 87.9578 178.083 87.0053 175.696 85.6348C171.823 82.9558 166.77 78.7472 165.651 73.9295C164.002 66.8217 167.326 58.6332 171.071 52.7235Z"/>
	<path fill="#0093FF" transform="scale(0.666667 0.666667)" d="M171.071 52.7235C173.748 49.0596 178.069 46.8239 182.27 45.3523C188.031 43.3344 194.354 43.4874 199.88 46.1015L199.484 46.4099L185.382 59.8598L176.325 55.467C174.557 54.5654 172.933 53.4331 171.071 52.7235Z"/>
	<path fill="#193FDB" transform="scale(0.666667 0.666667)" d="M175.696 85.6348C176.824 82.1193 182.418 78.6882 185.208 76.3692L197.29 66.1835C201.395 68.3101 206.363 69.9183 210.124 72.4797C208.643 78.2622 205.484 83.1395 200.276 86.2087C199.215 86.8342 198.043 87.5868 196.8 87.6831C195.693 87.8838 194.924 88.094 193.924 88.6066L193.947 88.6342C190.532 89.2972 186.661 88.8561 183.195 88.6627C180.536 87.9578 178.083 87.0053 175.696 85.6348Z"/>
	<path fill="#BDE7FC" transform="scale(0.666667 0.666667)" d="M120.835 593.725L120.497 593.522C116.723 591.195 113.704 587.579 110.588 584.457C97.9157 571.756 86.7743 558.026 82.4686 540.203C81.7299 537.145 80.2207 530.296 82.1122 527.576C82.682 526.757 83.9174 526.115 84.846 525.837C89.2152 524.533 95.478 525.746 100.035 526.144L112.505 527.133C114.943 527.384 117.71 528.29 120.119 527.681L120.433 527.589L120.835 593.725Z"/>
	<path fill="#D3EEFA" transform="scale(0.666667 0.666667)" d="M667.293 570.096L668.511 569.882C668.959 569.017 669.265 568.264 670.125 567.731C671.184 568.149 671.126 568.223 671.663 569.245C673.369 574.546 672.901 580.999 673.779 586.535L676.985 603.487C678.714 613.844 679.728 624.607 679.933 635.103C680.128 645.053 679.368 655.532 674.799 664.555C671.647 670.781 665.415 679.341 659.314 682.685C654.753 680.499 650.154 676.122 645.978 673.119L633.733 664.925C636.342 662.759 639 660.067 640.461 656.981C643.823 649.874 645.548 641.099 647.838 633.544L663.552 581.664C664.735 577.914 665.577 573.604 667.293 570.096ZM667.293 570.096C665.577 573.604 664.735 577.914 663.552 581.664C663.983 582.19 664.32 582.736 664.688 583.309L665.438 583.031C666.132 581.928 666.042 580.865 666.562 579.724C667.146 578.445 668.317 577.459 668.812 576.094C669.522 574.137 669.322 571.857 669.908 569.812L671.663 569.245C671.126 568.223 671.184 568.149 670.125 567.731C669.265 568.264 668.959 569.017 668.511 569.882L667.293 570.096Z"/>
	<path fill="#FEFEFF" fill-opacity="0.9137255" transform="scale(0.666667 0.666667)" d="M667.293 570.096L668.511 569.882C668.959 569.017 669.265 568.264 670.125 567.731C671.184 568.149 671.126 568.223 671.663 569.245L669.908 569.812C669.322 571.857 669.522 574.137 668.812 576.094C668.317 577.459 667.146 578.445 666.562 579.724C666.042 580.865 666.132 581.928 665.438 583.031L664.688 583.309C664.32 582.736 663.983 582.19 663.552 581.664C664.735 577.914 665.577 573.604 667.293 570.096Z"/>
	<path fill="#0093FF" transform="scale(0.666667 0.666667)" d="M172.539 649.183C173.812 648.783 175.434 648.99 176.775 648.988L185.424 648.976L219.288 649.128L263.527 679.225L280.628 692.497C288.552 699.087 296.285 705.991 304.839 711.772C311.543 716.301 318.52 719.993 325.72 723.651C329.502 725.573 334.077 727.122 337.375 729.739L312.137 725.803C283.587 720.622 255.741 710.624 229.875 697.594C216.065 690.637 201.949 682.553 190.579 671.968C183.47 665.349 178.025 657.136 172.539 649.183Z"/>
	<path fill="#193FDB" transform="scale(0.666667 0.666667)" d="M460.107 36.418L461.438 37.3778C464.249 36.7538 467.272 34.2384 470.145 33.15C484.36 27.7642 498.855 27.6302 512.008 35.9652C516.057 38.5308 519.733 41.8137 522.11 46.0364C526.351 53.2036 529.552 61.3757 530.235 69.75C530.666 75.0338 529.91 80.4099 529.338 85.657L529.266 85.7204C525.34 99.1338 520.207 108.749 507.507 115.688C496.941 121.46 483.737 124.073 472 120.554C462.44 117.687 452.556 111.93 447.242 103.221C449.058 101.183 451.831 99.4208 453.969 97.6779C452.849 96.3005 452.051 94.5179 451.22 92.9477C449.013 88.7784 447.181 84.4402 444.746 80.3931C441.849 73.4316 443.399 65.377 445.332 58.384L445.866 56.8116C449.418 48.5468 453.961 43.3836 461.168 38.0625C460.493 37.5643 460.444 37.1673 460.107 36.418Z"/>
	<path fill="#1B5CEE" transform="scale(0.666667 0.666667)" d="M460.107 36.418L461.438 37.3778C464.249 36.7538 467.272 34.2384 470.145 33.15C484.36 27.7642 498.855 27.6302 512.008 35.9652C516.057 38.5308 519.733 41.8137 522.11 46.0364C516.603 47.3861 511.24 53.8139 506.747 57.292L469.979 85.2424C467.509 87.1507 455.846 97.3229 453.969 97.6779C452.849 96.3005 452.051 94.5179 451.22 92.9477C449.013 88.7784 447.181 84.4402 444.746 80.3931C441.849 73.4316 443.399 65.377 445.332 58.384L445.866 56.8116C449.418 48.5468 453.961 43.3836 461.168 38.0625C460.493 37.5643 460.444 37.1673 460.107 36.418Z"/>
	<path fill="#D3EEFA" transform="scale(0.666667 0.666667)" d="M120.238 438.99L119.618 438.951L118.974 438.937C117.048 438.837 114.73 437.459 113.01 436.595C98.3882 429.251 84.3921 416.438 73.2191 404.643C43.9185 373.713 24.1397 333.332 25.5502 290.08C25.6948 285.645 26.5565 281.132 27.3072 276.76C31.5887 251.821 43.7044 231.796 62.2794 214.779C69.7134 207.969 107.995 179.742 116.602 180.947L119.452 181.401L120.238 438.99Z"/>
	<path fill="#BDE7FC" transform="scale(0.666667 0.666667)" d="M477.87 648.951C477.329 651.217 476.85 654.017 475.782 656.083C487.015 655.108 498.406 655.787 509.585 654.644L524.336 654.061C528.352 653.915 531.562 653.315 535.551 654.279L537.279 655.688C537.254 656.663 536.959 657.415 536.619 658.312C536.884 659.73 538.63 660.923 539.647 661.9C543.85 664.941 549.68 669.271 554.899 670.133L554.99 670.776C552.33 672.439 550.131 677.789 548.545 680.589C541.27 693.432 533.389 705.994 520.791 714.261C518.66 715.659 516.243 717.362 513.879 718.315C507.2 721.42 500.733 723.584 493.594 725.332C492.45 726.376 490.849 727.499 489.907 728.7C486.797 730.194 483.005 730.238 479.625 730.505C477.211 730.696 474.723 731.099 472.312 730.74L469.72 728.489L469.609 728.827C469.373 729.56 469.198 729.924 469.312 730.706C464.959 733.21 439.885 732.716 433.273 732.816L375.481 732.957L337.375 729.739C334.077 727.122 329.502 725.573 325.72 723.651C318.52 719.993 311.543 716.301 304.839 711.772C296.285 705.991 288.552 699.087 280.628 692.497L263.527 679.225L219.288 649.128L477.87 648.951Z"/>
	<path fill="#00144D" transform="scale(0.666667 0.666667)" d="M509.585 654.644L524.336 654.061C528.352 653.915 531.562 653.315 535.551 654.279L537.279 655.688C537.254 656.663 536.959 657.415 536.619 658.312C536.884 659.73 538.63 660.923 539.647 661.9C543.85 664.941 549.68 669.271 554.899 670.133L554.99 670.776C552.33 672.439 550.131 677.789 548.545 680.589C541.27 693.432 533.389 705.994 520.791 714.261C518.66 715.659 516.243 717.362 513.879 718.315C507.2 721.42 500.733 723.584 493.594 725.332C492.45 726.376 490.849 727.499 489.907 728.7C486.797 730.194 483.005 730.238 479.625 730.505C477.211 730.696 474.723 731.099 472.312 730.74L469.72 728.489C469.737 728.395 469.804 728.297 469.771 728.208C469.504 727.494 468.348 726.316 467.863 725.612C466.113 723.07 464.512 720.152 463.746 717.147C462.221 711.16 466.511 703.892 469.493 698.941C471.639 692.488 475.377 687.586 479.34 682.142C484.134 675.556 489.08 669.219 494.566 663.189C491.895 663.098 488.885 663.771 486.202 664.08L471.572 665.549C472.114 663.304 473.807 657.386 475.782 656.083C487.015 655.108 498.406 655.787 509.585 654.644Z"/>
	<path fill="#FFA430" transform="scale(0.666667 0.666667)" d="M469.72 728.489C469.737 728.395 469.804 728.297 469.771 728.208C469.504 727.494 468.348 726.316 467.863 725.612C466.113 723.07 464.512 720.152 463.746 717.147C462.221 711.16 466.511 703.892 469.493 698.941C472.43 710.38 477.945 718.474 487.698 725.09C489.019 725.986 492.044 725.407 493.594 725.332C492.45 726.376 490.849 727.499 489.907 728.7C486.797 730.194 483.005 730.238 479.625 730.505C477.211 730.696 474.723 731.099 472.312 730.74L469.72 728.489Z"/>
	<path fill="#001E8A" transform="scale(0.666667 0.666667)" d="M509.585 654.644L524.336 654.061C528.352 653.915 531.562 653.315 535.551 654.279L537.279 655.688C537.254 656.663 536.959 657.415 536.619 658.312C536.884 659.73 538.63 660.923 539.647 661.9C533.445 664.339 524.634 663.431 518.062 663.475C510.212 663.528 502.408 663.923 494.566 663.189C491.895 663.098 488.885 663.771 486.202 664.08L471.572 665.549C472.114 663.304 473.807 657.386 475.782 656.083C487.015 655.108 498.406 655.787 509.585 654.644Z"/>
	<defs>
		<linearGradient id="gradient_1" gradientUnits="userSpaceOnUse" x1="626.06934" y1="725.31433" x2="571.6275" y2="638.89325">
			<stop offset="0" stop-color="#0023D5"/>
			<stop offset="1" stop-color="#004FFF"/>
		</linearGradient>
	</defs>
	<path fill="url(#gradient_1)" transform="scale(0.666667 0.666667)" d="M653.961 564.846L657.323 551.629C659.262 544.593 660.823 538.65 667.445 534.651C669.35 533.501 670.907 533.078 673.125 533.3C673.986 533.919 674.812 534.322 674.943 535.5C675.386 539.461 673.876 544.732 672.954 548.555L667.293 570.096C665.577 573.604 664.735 577.914 663.552 581.664L647.838 633.544C645.548 641.099 643.823 649.874 640.461 656.981C639 660.067 636.342 662.759 633.733 664.925L630.134 666.845C632.124 669.318 634.166 671.792 635.793 674.525C637.992 678.219 639.479 682.241 640.934 686.271C644.311 695.627 646.324 704.454 645.981 714.431L555.793 724.179L532.608 726.188C528.609 726.56 523.685 727.833 519.75 727.224C519.191 727.137 518.833 726.938 518.377 726.602C518.035 726.349 518.026 726.311 517.786 726.029C517.033 723.491 515.125 720.7 513.879 718.315C516.243 717.362 518.66 715.659 520.791 714.261C533.389 705.994 541.27 693.432 548.545 680.589C550.131 677.789 552.33 672.439 554.99 670.776L554.899 670.133C549.68 669.271 543.85 664.941 539.647 661.9C538.63 660.923 536.884 659.73 536.619 658.312C536.959 657.415 537.254 656.663 537.279 655.688L535.551 654.279C531.562 653.315 528.352 653.915 524.336 654.061L509.585 654.644C498.406 655.787 487.015 655.108 475.782 656.083C476.85 654.017 477.329 651.217 477.87 648.951L485.209 627.132L493.752 600.199C493.641 598.31 495.273 594.581 495.849 592.625L503.488 566.816L506.067 567.596C508.083 567.933 511.921 568.459 513.797 567.687C514.898 567.233 516.02 567.09 517.19 566.846C518.4 566.453 519.563 566.164 520.818 565.954C522.21 565.885 523.856 565.748 525.173 565.282C527.029 564.626 528.832 564.598 530.635 563.674L532.125 564.191L532.875 563.816L533.438 564.191C534.333 564.29 534.462 564.271 535.312 564C536.015 563.776 537.09 563.835 537.714 564.213C536.852 564.398 536.262 564.389 535.588 564.989L535.954 565.041C536.84 565.175 537.467 565.225 538.166 565.842C540.846 565.689 544.613 565.685 547.047 564.713L547.159 564.368C547.765 564.012 547.426 564.155 548.189 563.972L548.472 563.601C549.106 563.067 549.849 562.957 550.64 562.972C552.576 563.009 555.619 562.906 557.32 562.048C559.051 561.176 561.47 560.748 563.375 561.24C566.631 562.08 569.464 561.402 572.786 561.151C576.082 560.901 579.543 560.809 582.791 560.21C586.919 559.447 591.853 559.911 596.101 559.803C598.607 559.953 600.001 559.776 602.288 558.696L608.392 543.161C613.529 547.026 618.616 550.376 625.125 551.34C626.028 551.474 627.234 551.767 628.118 551.674C628.613 551.622 628.748 551.516 629.138 551.312C633.388 553.803 638.356 555.043 642.697 557.506C646.394 559.604 650.084 563.463 653.961 564.846ZM596.101 559.803C591.853 559.911 586.919 559.447 582.791 560.21C579.543 560.809 576.082 560.901 572.786 561.151C569.464 561.402 566.631 562.08 563.375 561.24C561.47 560.748 559.051 561.176 557.32 562.048C555.619 562.906 552.576 563.009 550.64 562.972C549.849 562.957 549.106 563.067 548.472 563.601L548.189 563.972C547.426 564.155 547.765 564.012 547.159 564.368L547.047 564.713C544.613 565.685 540.846 565.689 538.166 565.842C537.467 565.225 536.84 565.175 535.954 565.041L535.588 564.989C536.262 564.389 536.852 564.398 537.714 564.213C537.09 563.835 536.015 563.776 535.312 564C534.462 564.271 534.333 564.29 533.438 564.191L532.875 563.816L532.125 564.191L530.635 563.674C528.832 564.598 527.029 564.626 525.173 565.282C523.856 565.748 522.21 565.885 520.818 565.954C519.563 566.164 518.4 566.453 517.19 566.846C516.02 567.09 514.898 567.233 513.797 567.687C511.921 568.459 508.083 567.933 506.067 567.596L503.488 566.816L495.849 592.625C495.273 594.581 493.641 598.31 493.752 600.199L485.209 627.132L477.87 648.951C477.329 651.217 476.85 654.017 475.782 656.083C487.015 655.108 498.406 655.787 509.585 654.644L524.336 654.061C528.352 653.915 531.562 653.315 535.551 654.279L537.279 655.688C537.254 656.663 536.959 657.415 536.619 658.312C536.884 659.73 538.63 660.923 539.647 661.9C543.85 664.941 549.68 669.271 554.899 670.133C557.801 666.991 561.547 665.195 564.944 662.696C569.799 659.125 570.903 653.184 571.718 647.583C572.49 643.298 573.544 639.487 575.297 635.496L602.288 558.696C600.001 559.776 598.607 559.953 596.101 559.803Z"/>
	<path fill="#FF7736" transform="scale(0.666667 0.666667)" d="M554.99 670.776C557.476 671.979 559.466 673.88 561.808 675.312C564.116 676.724 566.805 677.472 569.357 678.308C570.768 678.77 572.292 679.102 572.811 680.672C573.583 683.013 573.18 685.351 572.842 687.732C571.726 695.601 568.829 702.544 565.057 709.5L555.793 724.179L532.608 726.188C528.609 726.56 523.685 727.833 519.75 727.224C519.191 727.137 518.833 726.938 518.377 726.602C518.035 726.349 518.026 726.311 517.786 726.029C517.033 723.491 515.125 720.7 513.879 718.315C516.243 717.362 518.66 715.659 520.791 714.261C533.389 705.994 541.27 693.432 548.545 680.589C550.131 677.789 552.33 672.439 554.99 670.776Z"/>
	<path fill="#001E8A" transform="scale(0.666667 0.666667)" d="M653.961 564.846L657.323 551.629C659.262 544.593 660.823 538.65 667.445 534.651C669.35 533.501 670.907 533.078 673.125 533.3C673.986 533.919 674.812 534.322 674.943 535.5C675.386 539.461 673.876 544.732 672.954 548.555L667.293 570.096C665.577 573.604 664.735 577.914 663.552 581.664L647.838 633.544C645.548 641.099 643.823 649.874 640.461 656.981C639 660.067 636.342 662.759 633.733 664.925L630.134 666.845C625.944 667.876 621.847 670.582 618.008 672.487C610.69 676.119 603 679.505 595.032 681.431C592.235 682.106 587.499 683.395 584.898 681.818L584.914 681.307C595.724 677.175 606.104 672.041 615.92 665.923C625.482 659.963 634.847 653.674 637.479 641.986L637.63 641.299C638.017 639.603 638.34 638.218 638.148 636.472C640.263 630.862 641.175 624.246 642.594 618.381L649.799 587.982C651.539 580.373 653.615 572.682 653.961 564.846Z"/>
	<path fill="#FF4A42" transform="scale(0.666667 0.666667)" d="M608.392 543.161C613.529 547.026 618.616 550.376 625.125 551.34C626.028 551.474 627.234 551.767 628.118 551.674C628.613 551.622 628.748 551.516 629.138 551.312C633.388 553.803 638.356 555.043 642.697 557.506C646.394 559.604 650.084 563.463 653.961 564.846C653.615 572.682 651.539 580.373 649.799 587.982L642.594 618.381C641.175 624.246 640.263 630.862 638.148 636.472C635.031 633.564 631.891 630.641 628.053 628.705C623.237 626.276 618.403 626.684 613.41 628.32C609.217 630.961 605.56 631.952 600.603 631.989L596.038 632.123C589.097 634.463 582.613 635.605 575.297 635.496L602.288 558.696L608.392 543.161Z"/>
	<path fill="#001E8A" transform="scale(0.666667 0.666667)" d="M601.763 627.025C602.041 629.018 601.499 630.253 600.603 631.989L596.038 632.123L601.763 627.025Z"/>
	<path fill="#743396" transform="scale(0.666667 0.666667)" d="M601.763 627.025L602.029 626.711C607.555 620.118 610.796 611.23 613.109 603.036C613.93 600.129 614.849 597.164 615.333 594.185C618.9 597.805 622.439 601.467 622.306 606.938C622.198 611.384 620.148 617.363 617.534 620.929C616.124 622.853 614.308 624.724 613.216 626.837C613.199 626.871 612.86 627.538 612.865 627.562C612.928 627.867 613.228 628.068 613.41 628.32C609.217 630.961 605.56 631.952 600.603 631.989C601.499 630.253 602.041 629.018 601.763 627.025Z"/>
	<path fill="#BDE7FC" transform="scale(0.666667 0.666667)" d="M596.101 559.803C598.607 559.953 600.001 559.776 602.288 558.696L575.297 635.496C573.544 639.487 572.49 643.298 571.718 647.583C570.903 653.184 569.799 659.125 564.944 662.696C561.547 665.195 557.801 666.991 554.899 670.133C549.68 669.271 543.85 664.941 539.647 661.9C538.63 660.923 536.884 659.73 536.619 658.312C536.959 657.415 537.254 656.663 537.279 655.688L535.551 654.279C531.562 653.315 528.352 653.915 524.336 654.061L509.585 654.644C498.406 655.787 487.015 655.108 475.782 656.083C476.85 654.017 477.329 651.217 477.87 648.951L485.209 627.132L493.752 600.199C493.641 598.31 495.273 594.581 495.849 592.625L503.488 566.816L506.067 567.596C508.083 567.933 511.921 568.459 513.797 567.687C514.898 567.233 516.02 567.09 517.19 566.846C518.4 566.453 519.563 566.164 520.818 565.954C522.21 565.885 523.856 565.748 525.173 565.282C527.029 564.626 528.832 564.598 530.635 563.674L532.125 564.191L532.875 563.816L533.438 564.191C534.333 564.29 534.462 564.271 535.312 564C536.015 563.776 537.09 563.835 537.714 564.213C536.852 564.398 536.262 564.389 535.588 564.989L535.954 565.041C536.84 565.175 537.467 565.225 538.166 565.842C540.846 565.689 544.613 565.685 547.047 564.713L547.159 564.368C547.765 564.012 547.426 564.155 548.189 563.972L548.472 563.601C549.106 563.067 549.849 562.957 550.64 562.972C552.576 563.009 555.619 562.906 557.32 562.048C559.051 561.176 561.47 560.748 563.375 561.24C566.631 562.08 569.464 561.402 572.786 561.151C576.082 560.901 579.543 560.809 582.791 560.21C586.919 559.447 591.853 559.911 596.101 559.803ZM530.635 563.674C528.832 564.598 527.029 564.626 525.173 565.282C523.856 565.748 522.21 565.885 520.818 565.954C519.563 566.164 518.4 566.453 517.19 566.846C516.02 567.09 514.898 567.233 513.797 567.687C511.921 568.459 508.083 567.933 506.067 567.596L503.488 566.816L495.849 592.625C495.273 594.581 493.641 598.31 493.752 600.199L485.209 627.132L477.87 648.951C477.329 651.217 476.85 654.017 475.782 656.083C487.015 655.108 498.406 655.787 509.585 654.644C510.682 652.12 510.704 648.803 511.398 646.078C512.656 641.135 514.665 636.358 516.761 631.721L538.778 585.572C542.186 578.562 546.175 572.027 548.862 564.673L548.189 563.972C547.426 564.155 547.765 564.012 547.159 564.368L547.047 564.713C544.613 565.685 540.846 565.689 538.166 565.842C537.467 565.225 536.84 565.175 535.954 565.041L535.588 564.989C536.262 564.389 536.852 564.398 537.714 564.213C537.09 563.835 536.015 563.776 535.312 564C534.462 564.271 534.333 564.29 533.438 564.191L532.875 563.816L532.125 564.191L530.635 563.674Z"/>
	<path fill="#FFA430" transform="scale(0.666667 0.666667)" d="M535.551 654.279C536.448 654.167 537.608 654.316 538.417 653.916C539.854 653.206 541.016 646.967 541.353 645.353C545.002 646.92 548.936 648.877 552.858 649.561L553.312 649.635C557.283 650.365 562.246 649.256 566.165 648.42C567.887 648.053 570.002 647.282 571.718 647.583C570.903 653.184 569.799 659.125 564.944 662.696C561.547 665.195 557.801 666.991 554.899 670.133C549.68 669.271 543.85 664.941 539.647 661.9C538.63 660.923 536.884 659.73 536.619 658.312C536.959 657.415 537.254 656.663 537.279 655.688L535.551 654.279Z"/>
	<defs>
		<linearGradient id="gradient_2" gradientUnits="userSpaceOnUse" x1="556.5069" y1="596.86041" x2="467.74573" y2="621.75763">
			<stop offset="0" stop-color="#F7F8F9" stop-opacity="0.93725491"/>
			<stop offset="1" stop-color="#FBFAFD"/>
		</linearGradient>
	</defs>
	<path fill="url(#gradient_2)" transform="scale(0.666667 0.666667)" d="M530.635 563.674L532.125 564.191L532.875 563.816L533.438 564.191C534.333 564.29 534.462 564.271 535.312 564C536.015 563.776 537.09 563.835 537.714 564.213C536.852 564.398 536.262 564.389 535.588 564.989L535.954 565.041C536.84 565.175 537.467 565.225 538.166 565.842C540.846 565.689 544.613 565.685 547.047 564.713L547.159 564.368C547.765 564.012 547.426 564.155 548.189 563.972L548.862 564.673C546.175 572.027 542.186 578.562 538.778 585.572L516.761 631.721C514.665 636.358 512.656 641.135 511.398 646.078C510.704 648.803 510.682 652.12 509.585 654.644C498.406 655.787 487.015 655.108 475.782 656.083C476.85 654.017 477.329 651.217 477.87 648.951L485.209 627.132L493.752 600.199C493.641 598.31 495.273 594.581 495.849 592.625L503.488 566.816L506.067 567.596C508.083 567.933 511.921 568.459 513.797 567.687C514.898 567.233 516.02 567.09 517.19 566.846C518.4 566.453 519.563 566.164 520.818 565.954C522.21 565.885 523.856 565.748 525.173 565.282C527.029 564.626 528.832 564.598 530.635 563.674Z"/>
	<path fill="#D3EEFA" transform="scale(0.666667 0.666667)" d="M212.756 100.201C213.712 99.3022 214.978 98.6336 215.99 97.7517L230.275 85.811L250.747 68.3777C261.26 60.2791 272.835 53.7959 284.679 47.8911C294.582 42.9547 304.927 39.0818 315.438 35.6695C335.895 29.0284 357.11 24.5103 378.51 22.2787C389.255 21.1582 399.9 20.4057 410.715 21.0953C427.776 22.1831 444.457 26.3521 460.616 31.7799L460.107 36.418C460.444 37.1673 460.493 37.5643 461.168 38.0625C453.961 43.3836 449.418 48.5468 445.866 56.8116L445.332 58.384C443.399 65.377 441.849 73.4316 444.746 80.3931C447.181 84.4402 449.013 88.7784 451.22 92.9477C452.051 94.5179 452.849 96.3005 453.969 97.6779C451.831 99.4208 449.058 101.183 447.242 103.221C441.671 107.739 436.378 112.07 431.469 117.328L407.241 144.89C404.248 148.294 401.518 152.061 398.138 155.105C396.355 156.71 394.409 157.848 392.275 158.921C388.574 157.958 384.879 156.971 381.037 156.846L380.13 156.693C379.858 156.408 379.452 156.207 379.312 155.838C379.104 155.286 379.215 153.729 379.171 153.068C379.056 151.352 378.803 149.772 378.145 148.172C376.049 143.073 372.168 140.942 367.312 138.928C360.571 137.508 352.564 138.288 345.69 138.281L297.902 138.472L197.076 138.733L194.247 138.841L194.244 135.093L194.251 115.49L194.264 98.4375C194.288 95.3346 194.82 91.6297 193.947 88.6342L193.924 88.6066C194.924 88.094 195.693 87.8838 196.8 87.6831L197.148 88.458C197.681 89.4549 197.73 89.4844 198.75 89.9785C200.628 89.6686 202.455 89.3413 204.366 89.3624C207.532 92.6386 209.188 97.2886 212.756 100.201ZM193.947 88.6342C194.82 91.6297 194.288 95.3346 194.264 98.4375L194.251 115.49L194.244 135.093L194.247 138.841L197.076 138.733L297.902 138.472C297.852 137.82 297.753 137.236 297.628 136.597C296.763 136.414 295.804 136.451 295.03 136.93L294.748 137.149C293.792 137.201 292.989 137.419 292.127 136.969L294.281 136.781L293.388 136.412L293.066 135.562C291.994 135.48 290.975 135.421 289.938 135.109C290.494 134.486 292.819 134.592 293.741 134.533C290.949 132.797 288.072 131.293 285.375 129.394C274.335 121.621 264.18 112.404 253.506 104.103C248.926 108.456 245.685 114.524 239.686 117.189L239.25 117.38L238.611 117.693C235.608 118.869 231.14 117.578 228.375 116.335C221.732 113.348 217.336 108.047 212.887 102.485C211.861 102.343 211.169 102.851 210.306 103.327C210.97 102.578 211.111 102.26 212.062 102L211.691 101.062L212.25 100.658L212.756 100.201C209.188 97.2886 207.532 92.6386 204.366 89.3624C202.455 89.3413 200.628 89.6686 198.75 89.9785C197.73 89.4844 197.681 89.4549 197.148 88.458L196.8 87.6831C195.693 87.8838 194.924 88.094 193.924 88.6066L193.947 88.6342Z"/>
	<path fill="#6BBBFF" transform="scale(0.666667 0.666667)" d="M352.762 102.03L353.407 103.169C349.279 106.99 345.503 110.298 340.568 113.036C343.848 108.133 347.979 105.296 352.762 102.03Z"/>
	<path fill="#8CF" transform="scale(0.666667 0.666667)" d="M374.582 113.062C375.907 113.117 377.125 114.712 378.115 115.611L360.828 131.338C360.078 131.849 359.582 131.896 358.688 131.967C358.594 131.728 358.369 131.504 358.408 131.25C358.507 130.599 359.91 129.179 360.356 128.665C364.206 124.236 369.25 120.875 373.029 116.487C373.793 115.599 374.184 114.155 374.582 113.062Z"/>
	<path fill="#8CF" transform="scale(0.666667 0.666667)" d="M352.762 102.03C358.171 97.2122 364.02 93.4222 370.03 89.4295C376.306 85.2596 382.551 81.1226 389.178 77.5158C401.136 71.0079 413.808 65.8745 426.689 61.5097C432.825 59.4303 439.347 56.9769 445.866 56.8116L445.332 58.384C439.117 58.7905 433.151 61.2873 427.236 63.0699C407.262 69.0903 388.533 77.7276 371.406 89.6707L353.407 103.169L352.762 102.03Z"/>
	<path fill="#6BBBFF" transform="scale(0.666667 0.666667)" d="M439.438 72.4502C440.328 72.3895 441.064 72.5017 441.938 72.6455L442.302 73.3125C441.515 74.6556 439.968 75.3936 438.598 76.0327C434.491 77.9483 429.672 79.0159 425.35 80.4183C420.273 82.0657 415.239 84.1328 410.345 86.2635C395.542 92.7091 381.51 100.513 368.394 109.94C363.132 113.721 357.987 117.499 353.289 121.977C352.726 122.445 352.222 122.765 351.562 123.084L351.35 122.438C354.832 117.554 360.25 114.299 364.993 110.778C387.897 93.7714 412.033 80.7867 439.438 72.4502Z"/>
	<defs>
		<linearGradient id="gradient_3" gradientUnits="userSpaceOnUse" x1="231.71292" y1="95.41655" x2="254.47768" y2="154.00226">
			<stop offset="0" stop-color="white" stop-opacity="0.94901961"/>
			<stop offset="1" stop-color="white"/>
		</linearGradient>
	</defs>
	<path fill="url(#gradient_3)" transform="scale(0.666667 0.666667)" d="M193.947 88.6342L193.924 88.6066C194.924 88.094 195.693 87.8838 196.8 87.6831L197.148 88.458C197.681 89.4549 197.73 89.4844 198.75 89.9785C200.628 89.6686 202.455 89.3413 204.366 89.3624C207.532 92.6386 209.188 97.2886 212.756 100.201L212.25 100.658L211.691 101.062L212.062 102C211.111 102.26 210.97 102.578 210.306 103.327C211.169 102.851 211.861 102.343 212.887 102.485C217.336 108.047 221.732 113.348 228.375 116.335C231.14 117.578 235.608 118.869 238.611 117.693L239.25 117.38L239.686 117.189C245.685 114.524 248.926 108.456 253.506 104.103C264.18 112.404 274.335 121.621 285.375 129.394C288.072 131.293 290.949 132.797 293.741 134.533C292.819 134.592 290.494 134.486 289.938 135.109C290.975 135.421 291.994 135.48 293.066 135.562L293.388 136.412L294.281 136.781L292.127 136.969C292.989 137.419 293.792 137.201 294.748 137.149L295.03 136.93C295.804 136.451 296.763 136.414 297.628 136.597C297.753 137.236 297.852 137.82 297.902 138.472L197.076 138.733L194.247 138.841L194.244 135.093L194.251 115.49L194.264 98.4375C194.288 95.3346 194.82 91.6297 193.947 88.6342ZM196.807 104.576C197.801 106.968 197.966 109.371 198.181 111.921C202.202 110.612 206.216 107.845 209.062 104.734L209.066 104.062L209.652 103.502L210.306 103.327C210.97 102.578 211.111 102.26 212.062 102L211.691 101.062L212.25 100.658L212.756 100.201C209.188 97.2886 207.532 92.6386 204.366 89.3624C202.455 89.3413 200.628 89.6686 198.75 89.9785C197.73 89.4844 197.681 89.4549 197.148 88.458C196.059 93.3264 196.743 99.5404 196.807 104.576Z"/>
	<path fill="#1B5CEE" transform="scale(0.666667 0.666667)" d="M193.947 88.6342L193.924 88.6066C194.924 88.094 195.693 87.8838 196.8 87.6831L197.148 88.458C196.059 93.3264 196.743 99.5404 196.807 104.576L197.076 138.733L194.247 138.841L194.244 135.093L194.251 115.49L194.264 98.4375C194.288 95.3346 194.82 91.6297 193.947 88.6342Z"/>
	<path fill="#FEFEFF" fill-opacity="0.85490197" transform="scale(0.666667 0.666667)" d="M196.807 104.576C196.743 99.5404 196.059 93.3264 197.148 88.458C197.681 89.4549 197.73 89.4844 198.75 89.9785C200.628 89.6686 202.455 89.3413 204.366 89.3624C207.532 92.6386 209.188 97.2886 212.756 100.201L212.25 100.658L211.691 101.062L212.062 102C211.111 102.26 210.97 102.578 210.306 103.327L209.652 103.502L209.066 104.062L209.062 104.734C206.216 107.845 202.202 110.612 198.181 111.921C197.966 109.371 197.801 106.968 196.807 104.576Z"/>
	<path fill="#35A0FF" transform="scale(0.666667 0.666667)" d="M367.312 138.928C369.904 135.024 372.421 131.216 375.438 127.612C380.9 121.088 387.395 115.193 393.763 109.564C409.097 96.0076 424.417 85.1364 444.746 80.3931C447.181 84.4402 449.013 88.7784 451.22 92.9477C452.051 94.5179 452.849 96.3005 453.969 97.6779C451.831 99.4208 449.058 101.183 447.242 103.221C441.671 107.739 436.378 112.07 431.469 117.328L407.241 144.89C404.248 148.294 401.518 152.061 398.138 155.105C396.355 156.71 394.409 157.848 392.275 158.921C388.574 157.958 384.879 156.971 381.037 156.846L380.13 156.693C379.858 156.408 379.452 156.207 379.312 155.838C379.104 155.286 379.215 153.729 379.171 153.068C379.056 151.352 378.803 149.772 378.145 148.172C376.049 143.073 372.168 140.942 367.312 138.928Z"/>
	<path fill="#BDE7FC" transform="scale(0.666667 0.666667)" d="M652.297 195.407C654.084 197.62 655.753 199.963 657.675 202.058C665.256 210.327 674.668 217.982 683.776 224.49C689.173 228.346 695.703 231.07 700.176 236.068C702.917 239.13 704.66 243.247 706.51 246.88L714.183 262.173C721.648 277.548 728.727 293.2 733.924 309.502C742.887 337.616 745.994 367.385 742.883 396.73C741.176 412.835 737.327 428.794 733.003 444.375C731.092 451.257 729.339 458.155 726.198 464.61C722.804 471.588 718.153 477.99 713.416 484.109C705.111 494.838 695.962 504.961 685.394 513.52L628.817 550.823L629.138 551.312C628.748 551.516 628.613 551.622 628.118 551.674C627.234 551.767 626.028 551.474 625.125 551.34C618.616 550.376 613.529 547.026 608.392 543.161L602.288 558.696C600.001 559.776 598.607 559.953 596.101 559.803C591.853 559.911 586.919 559.447 582.791 560.21C579.543 560.809 576.082 560.901 572.786 561.151C569.464 561.402 566.631 562.08 563.375 561.24C561.47 560.748 559.051 561.176 557.32 562.048C555.619 562.906 552.576 563.009 550.64 562.972C549.849 562.957 549.106 563.067 548.472 563.601L548.189 563.972C547.426 564.155 547.765 564.012 547.159 564.368L547.047 564.713C544.613 565.685 540.846 565.689 538.166 565.842C537.467 565.225 536.84 565.175 535.954 565.041L535.588 564.989C536.262 564.389 536.852 564.398 537.714 564.213C537.09 563.835 536.015 563.776 535.312 564C534.462 564.271 534.333 564.29 533.438 564.191L532.875 563.816L532.125 564.191L530.635 563.674C528.832 564.598 527.029 564.626 525.173 565.282C523.856 565.748 522.21 565.885 520.818 565.954C519.563 566.164 518.4 566.453 517.19 566.846C516.02 567.09 514.898 567.233 513.797 567.687C511.921 568.459 508.083 567.933 506.067 567.596L503.488 566.816L503.91 533.063C503.992 527.773 503.507 522.059 504.242 516.84L504.783 517.78L505.398 517.688C506.73 517.134 508.602 515.289 509.789 514.327C515.03 510.08 520.685 505.8 524.194 499.979C520.71 496.202 519.313 492.734 518.418 487.755C518.244 487.342 518.295 486.12 518.268 485.63L518.083 479.359L518.031 446.062L518.664 445.468C517.688 443.18 518.223 439.486 518.229 436.968C518.24 432.051 517.967 426.962 518.292 422.062C518.378 420.757 518.886 419.629 518.824 418.299L666.877 417.719C667.328 413.645 667.045 409.254 667.048 405.153L667.049 381.76L666.582 302.812L666.022 291.188L666.075 275.028C666.362 267.38 667.641 260.068 665.612 252.501C664.445 248.15 661.522 245.545 657.752 243.326C657.239 242.463 656.977 241.702 656.687 240.75C656.854 240.507 656.917 240.137 657.188 240.021C658.01 239.668 660.884 239.94 662.004 239.717L662.378 239.639C656.945 237.269 650.279 238.047 644.436 238.069L626.09 238.159C625.971 235.794 627.091 235.344 628.045 233.439C628.35 232.829 628.663 232.302 629.066 231.75L629.627 231.002C630.192 230.023 630.953 229.134 631.444 228.153C631.775 227.493 631.596 227.706 632.062 227.066L635.351 222.364L635.627 222.002L636.31 221.064L637.127 220.127C637.557 219.361 638.257 218.923 638.627 218.252C639.176 217.255 638.478 218.047 639.069 217.378C639.634 216.739 640.231 216.175 640.688 215.441C641.383 214.324 642.228 213.522 643.009 212.484L644.066 211.125L645.191 209.625L646.316 208.125L647.441 206.625L649.312 204.191C649.675 203.66 649.913 203.195 650.336 202.688C650.871 202.047 651.435 201.441 651.867 200.722C652.944 198.929 652.775 197.368 652.297 195.407ZM518.824 418.299C518.886 419.629 518.378 420.757 518.292 422.062C517.967 426.962 518.24 432.051 518.229 436.968C518.223 439.486 517.688 443.18 518.664 445.468L518.031 446.062L518.083 479.359L518.268 485.63C518.295 486.12 518.244 487.342 518.418 487.755C519.313 492.734 520.71 496.202 524.194 499.979C520.685 505.8 515.03 510.08 509.789 514.327C508.602 515.289 506.73 517.134 505.398 517.688L504.783 517.78L504.242 516.84C503.507 522.059 503.992 527.773 503.91 533.063L503.488 566.816L506.067 567.596C508.083 567.933 511.921 568.459 513.797 567.687C514.898 567.233 516.02 567.09 517.19 566.846C518.4 566.453 519.563 566.164 520.818 565.954C522.21 565.885 523.856 565.748 525.173 565.282C527.029 564.626 528.832 564.598 530.635 563.674L532.125 564.191L532.875 563.816L533.438 564.191C534.333 564.29 534.462 564.271 535.312 564C536.015 563.776 537.09 563.835 537.714 564.213C536.852 564.398 536.262 564.389 535.588 564.989L535.954 565.041C536.84 565.175 537.467 565.225 538.166 565.842C540.846 565.689 544.613 565.685 547.047 564.713L547.159 564.368C547.765 564.012 547.426 564.155 548.189 563.972L548.472 563.601C549.106 563.067 549.849 562.957 550.64 562.972C552.576 563.009 555.619 562.906 557.32 562.048C559.051 561.176 561.47 560.748 563.375 561.24C566.631 562.08 569.464 561.402 572.786 561.151C576.082 560.901 579.543 560.809 582.791 560.21C586.919 559.447 591.853 559.911 596.101 559.803C598.607 559.953 600.001 559.776 602.288 558.696L608.392 543.161C613.529 547.026 618.616 550.376 625.125 551.34C626.028 551.474 627.234 551.767 628.118 551.674C628.613 551.622 628.748 551.516 629.138 551.312L628.817 550.823C621.171 538.929 621.451 525.396 623.792 511.986C624.58 508.725 624.701 505.494 624.579 502.157C627.195 502.68 630.035 502.471 632.701 502.484L644.438 502.675C651.185 502.715 655.809 500.72 660.541 495.953C663.204 493.27 665.154 490.398 666.117 486.697C667.422 481.68 666.816 475.56 666.816 470.353L666.806 445.782L666.877 417.719L518.824 418.299Z"/>
	<path fill="#00144D" transform="scale(0.666667 0.666667)" d="M662.378 239.639C667.823 242.496 672.155 246.872 673.926 252.902C675.015 256.613 675.465 260.672 675.091 264.513C674.516 270.429 674.988 276.761 674.988 282.734L674.99 320.403L674.78 453.376L674.715 479.597C674.711 484.01 675.141 488.927 674.292 493.253C673.245 498.591 669.97 503.646 665.861 507.143C658.064 513.779 648.143 512.267 638.656 512.251C634.197 512.244 629.413 512.599 624.99 512.165L623.792 511.986C624.58 508.725 624.701 505.494 624.579 502.157C627.195 502.68 630.035 502.471 632.701 502.484L644.438 502.675C651.185 502.715 655.809 500.72 660.541 495.953C663.204 493.27 665.154 490.398 666.117 486.697C667.422 481.68 666.816 475.56 666.816 470.353L666.806 445.782L666.877 417.719C667.328 413.645 667.045 409.254 667.048 405.153L667.049 381.76L666.582 302.812L666.022 291.188L666.075 275.028C666.362 267.38 667.641 260.068 665.612 252.501C664.445 248.15 661.522 245.545 657.752 243.326C657.239 242.463 656.977 241.702 656.687 240.75C656.854 240.507 656.917 240.137 657.188 240.021C658.01 239.668 660.884 239.94 662.004 239.717L662.378 239.639Z"/>
	<path fill="#0093FF" transform="scale(0.666667 0.666667)" d="M518.824 418.299L666.877 417.719L666.806 445.782L666.816 470.353C666.816 475.56 667.422 481.68 666.117 486.697C665.154 490.398 663.204 493.27 660.541 495.953C655.809 500.72 651.185 502.715 644.438 502.675L632.701 502.484C630.035 502.471 627.195 502.68 624.579 502.157C624.701 505.494 624.58 508.725 623.792 511.986C621.451 525.396 621.171 538.929 628.817 550.823L629.138 551.312C628.748 551.516 628.613 551.622 628.118 551.674C627.234 551.767 626.028 551.474 625.125 551.34C618.616 550.376 613.529 547.026 608.392 543.161L602.288 558.696C600.001 559.776 598.607 559.953 596.101 559.803C591.853 559.911 586.919 559.447 582.791 560.21C579.543 560.809 576.082 560.901 572.786 561.151C569.464 561.402 566.631 562.08 563.375 561.24C561.47 560.748 559.051 561.176 557.32 562.048C555.619 562.906 552.576 563.009 550.64 562.972C549.849 562.957 549.106 563.067 548.472 563.601L548.189 563.972C547.426 564.155 547.765 564.012 547.159 564.368L547.047 564.713C544.613 565.685 540.846 565.689 538.166 565.842C537.467 565.225 536.84 565.175 535.954 565.041L535.588 564.989C536.262 564.389 536.852 564.398 537.714 564.213C537.09 563.835 536.015 563.776 535.312 564C534.462 564.271 534.333 564.29 533.438 564.191L532.875 563.816L532.125 564.191L530.635 563.674C528.832 564.598 527.029 564.626 525.173 565.282C523.856 565.748 522.21 565.885 520.818 565.954C519.563 566.164 518.4 566.453 517.19 566.846C516.02 567.09 514.898 567.233 513.797 567.687C511.921 568.459 508.083 567.933 506.067 567.596L503.488 566.816L503.91 533.063C503.992 527.773 503.507 522.059 504.242 516.84L504.783 517.78L505.398 517.688C506.73 517.134 508.602 515.289 509.789 514.327C515.03 510.08 520.685 505.8 524.194 499.979C520.71 496.202 519.313 492.734 518.418 487.755C518.244 487.342 518.295 486.12 518.268 485.63L518.083 479.359L518.031 446.062L518.664 445.468C517.688 443.18 518.223 439.486 518.229 436.968C518.24 432.051 517.967 426.962 518.292 422.062C518.378 420.757 518.886 419.629 518.824 418.299ZM524.194 499.979C520.685 505.8 515.03 510.08 509.789 514.327C508.602 515.289 506.73 517.134 505.398 517.688L504.783 517.78L504.242 516.84C503.507 522.059 503.992 527.773 503.91 533.063L503.488 566.816L506.067 567.596C508.083 567.933 511.921 568.459 513.797 567.687C514.898 567.233 516.02 567.09 517.19 566.846C518.4 566.453 519.563 566.164 520.818 565.954C522.21 565.885 523.856 565.748 525.173 565.282C527.029 564.626 528.832 564.598 530.635 563.674L532.125 564.191L532.875 563.816L533.438 564.191C534.333 564.29 534.462 564.271 535.312 564C536.015 563.776 537.09 563.835 537.714 564.213C536.852 564.398 536.262 564.389 535.588 564.989L535.954 565.041C536.84 565.175 537.467 565.225 538.166 565.842C540.846 565.689 544.613 565.685 547.047 564.713L547.159 564.368C547.765 564.012 547.426 564.155 548.189 563.972L548.472 563.601C549.106 563.067 549.849 562.957 550.64 562.972C552.576 563.009 555.619 562.906 557.32 562.048C559.051 561.176 561.47 560.748 563.375 561.24C566.631 562.08 569.464 561.402 572.786 561.151C576.082 560.901 579.543 560.809 582.791 560.21C586.919 559.447 591.853 559.911 596.101 559.803C598.607 559.953 600.001 559.776 602.288 558.696L608.392 543.161L605.685 541.657C603.635 540.337 601.79 538.883 600.317 536.915C598.129 533.992 596.813 530.324 595.211 527.052L585.722 508.429C582.894 510.715 580.059 513.163 576.901 514.982C573.256 518.085 569.081 520.25 565.213 522.995C561.36 525.728 558.033 529.184 554.684 532.497L551.336 532.035C549.284 531.383 546.963 530.455 545.299 529.074C541.072 525.567 539.467 519.5 536.616 514.928L536.339 514.488C533.86 511.117 533.21 507.022 530.97 503.724L524.194 499.979Z"/>
	<path fill="#1B5CEE" transform="scale(0.666667 0.666667)" d="M567.091 482.975C568.028 481.271 568.931 479.415 570.378 478.094C571.017 479.629 571.563 481.027 571.807 482.684C570.418 483.295 568.586 483.019 567.091 482.975Z"/>
	<path fill="#001E8A" transform="scale(0.666667 0.666667)" d="M571.807 482.684C571.876 483.655 572.066 484.232 571.454 485.062C571.027 485.642 570.273 486.031 569.605 486.198C565.666 485.124 559.54 488.201 555.86 489.753C559.369 486.87 562.916 484.743 567.091 482.975C568.586 483.019 570.418 483.295 571.807 482.684Z"/>
	<path fill="#001E8A" transform="scale(0.666667 0.666667)" d="M518.418 487.755L518.852 486.938L520.749 486.562L528.717 494.847C529.716 495.82 531.641 497.127 532.312 498.233C532.439 498.441 532.515 499.159 532.522 499.312C532.594 500.763 532.051 502.763 530.97 503.724L524.194 499.979C520.71 496.202 519.313 492.734 518.418 487.755Z"/>
	<path fill="#00144D" transform="scale(0.666667 0.666667)" d="M570.378 478.094L570.949 477.235C575.034 477.265 578.91 478.241 581.903 481.219C586.068 485.363 584.357 494.974 584.605 500.559L585.722 508.429C582.894 510.715 580.059 513.163 576.901 514.982C573.256 518.085 569.081 520.25 565.213 522.995C561.36 525.728 558.033 529.184 554.684 532.497L551.336 532.035C549.284 531.383 546.963 530.455 545.299 529.074C541.072 525.567 539.467 519.5 536.616 514.928L536.339 514.488C538.846 512.14 542.152 511.142 545.301 509.931C548.552 503.492 554.487 499.472 559.875 494.962L569.605 486.198C570.273 486.031 571.027 485.642 571.454 485.062C572.066 484.232 571.876 483.655 571.807 482.684C571.563 481.027 571.017 479.629 570.378 478.094Z"/>
	<path fill="#FFA430" transform="scale(0.666667 0.666667)" d="M545.301 509.931L572.341 503.606C573.617 507.453 574.775 511.505 576.901 514.982C573.256 518.085 569.081 520.25 565.213 522.995C561.36 525.728 558.033 529.184 554.684 532.497L551.336 532.035C549.284 531.383 546.963 530.455 545.299 529.074C541.072 525.567 539.467 519.5 536.616 514.928L536.339 514.488C538.846 512.14 542.152 511.142 545.301 509.931Z"/>
	<path fill="#FFA430" transform="scale(0.666667 0.666667)" d="M584.605 500.559C589.078 494.555 592.917 490.018 600.809 488.741L602.062 488.57L602.685 488.474C608.145 487.673 614.424 489.101 618.853 492.45C621.854 494.72 624.015 497.861 624.522 501.648L624.579 502.157C624.701 505.494 624.58 508.725 623.792 511.986C621.451 525.396 621.171 538.929 628.817 550.823L629.138 551.312C628.748 551.516 628.613 551.622 628.118 551.674C627.234 551.767 626.028 551.474 625.125 551.34C618.616 550.376 613.529 547.026 608.392 543.161L605.685 541.657C603.635 540.337 601.79 538.883 600.317 536.915C598.129 533.992 596.813 530.324 595.211 527.052L585.722 508.429L584.605 500.559Z"/>
	<path fill="#FEFEFF" transform="scale(0.666667 0.666667)" d="M518.824 418.299L666.877 417.719L666.806 445.782L518.664 445.468C517.688 443.18 518.223 439.486 518.229 436.968C518.24 432.051 517.967 426.962 518.292 422.062C518.378 420.757 518.886 419.629 518.824 418.299Z"/>
	<defs>
		<linearGradient id="gradient_4" gradientUnits="userSpaceOnUse" x1="563.7796" y1="570.55951" x2="576.62567" y2="507.83316">
			<stop offset="0" stop-color="white" stop-opacity="0.74901962"/>
			<stop offset="1" stop-color="white"/>
		</linearGradient>
	</defs>
	<path fill="url(#gradient_4)" transform="scale(0.666667 0.666667)" d="M524.194 499.979L530.97 503.724C533.21 507.022 533.86 511.117 536.339 514.488L536.616 514.928C539.467 519.5 541.072 525.567 545.299 529.074C546.963 530.455 549.284 531.383 551.336 532.035L554.684 532.497C558.033 529.184 561.36 525.728 565.213 522.995C569.081 520.25 573.256 518.085 576.901 514.982C580.059 513.163 582.894 510.715 585.722 508.429L595.211 527.052C596.813 530.324 598.129 533.992 600.317 536.915C601.79 538.883 603.635 540.337 605.685 541.657L608.392 543.161L602.288 558.696C600.001 559.776 598.607 559.953 596.101 559.803C591.853 559.911 586.919 559.447 582.791 560.21C579.543 560.809 576.082 560.901 572.786 561.151C569.464 561.402 566.631 562.08 563.375 561.24C561.47 560.748 559.051 561.176 557.32 562.048C555.619 562.906 552.576 563.009 550.64 562.972C549.849 562.957 549.106 563.067 548.472 563.601L548.189 563.972C547.426 564.155 547.765 564.012 547.159 564.368L547.047 564.713C544.613 565.685 540.846 565.689 538.166 565.842C537.467 565.225 536.84 565.175 535.954 565.041L535.588 564.989C536.262 564.389 536.852 564.398 537.714 564.213C537.09 563.835 536.015 563.776 535.312 564C534.462 564.271 534.333 564.29 533.438 564.191L532.875 563.816L532.125 564.191L530.635 563.674C528.832 564.598 527.029 564.626 525.173 565.282C523.856 565.748 522.21 565.885 520.818 565.954C519.563 566.164 518.4 566.453 517.19 566.846C516.02 567.09 514.898 567.233 513.797 567.687C511.921 568.459 508.083 567.933 506.067 567.596L503.488 566.816L503.91 533.063C503.992 527.773 503.507 522.059 504.242 516.84L504.783 517.78L505.398 517.688C506.73 517.134 508.602 515.289 509.789 514.327C515.03 510.08 520.685 505.8 524.194 499.979ZM532.69 546.159C528.477 549.799 524.674 553.881 521.095 558.137C519.816 559.658 517.932 561.719 517.124 563.542L517.13 564C517.127 564.709 517.142 564.388 517.046 565.015C516.945 565.669 517.076 566.201 517.19 566.846C518.4 566.453 519.563 566.164 520.818 565.954L522.722 565.226C523.481 564.956 522.912 564.494 523.447 563.941C524.674 562.674 526.1 562.973 527.039 561.562C526.588 560.627 526.002 559.33 525.936 558.281C525.799 556.118 527.161 555.569 528.301 554.008C528.985 553.074 529.411 552.697 530.492 552.23L530.812 552.1L531.802 549.375L532.312 548.863C532.263 548.047 532.456 547.776 532.793 547.061L532.94 546.756L532.69 546.159ZM533.917 544.918L532.69 546.159L532.94 546.756L532.793 547.061C532.456 547.776 532.263 548.047 532.312 548.863L531.802 549.375L530.812 552.1L530.492 552.23C529.411 552.697 528.985 553.074 528.301 554.008C527.161 555.569 525.799 556.118 525.936 558.281C526.002 559.33 526.588 560.627 527.039 561.562C526.1 562.973 524.674 562.674 523.447 563.941C522.912 564.494 523.481 564.956 522.722 565.226L520.818 565.954C522.21 565.885 523.856 565.748 525.173 565.282C527.029 564.626 528.832 564.598 530.635 563.674L530.593 563.498L530.423 563.048L531.935 562.32L531.75 561.566C530.917 561.616 530.143 561.704 529.316 561.562C529.536 560.397 530.106 559.399 530.985 558.586C532.858 556.855 534.635 556.039 537.154 556.071L536.967 555.36C536.47 554.997 536.06 554.644 535.451 554.489L535.125 554.434L534.934 554.062L534.188 553.875L533.531 554.156L532.875 554.062L532.311 554.156L531.14 553.617L530.812 553.5C531.366 552.885 531.611 552.571 531.829 551.751C532.018 551.038 532.207 550.498 532.521 549.833C533.344 550.333 532.911 550.254 533.809 550.125L533.438 549.566L534.184 548.625L533.812 548.066C533.785 547.477 533.726 547.044 533.984 546.492C534.254 545.914 534.037 545.545 533.917 544.918ZM536.478 542.62L533.917 544.918C534.037 545.545 534.254 545.914 533.984 546.492C533.726 547.044 533.785 547.477 533.812 548.066L534.184 548.625L533.438 549.566L533.809 550.125C532.911 550.254 533.344 550.333 532.521 549.833C532.207 550.498 532.018 551.038 531.829 551.751C531.611 552.571 531.366 552.885 530.812 553.5L531.14 553.617L532.311 554.156L532.875 554.062L533.531 554.156L534.188 553.875L534.934 554.062L535.125 554.434L535.451 554.489C536.06 554.644 536.47 554.997 536.967 555.36C538.32 551.119 540.584 547.336 543.083 543.682L542.172 544.016L541.5 544.312L541.781 543.656L542.438 543.375L542.625 542.812C541.994 542.937 541.871 542.931 541.205 542.771L541.125 541.688L539.267 542.058L539.098 542.37C538.503 543.056 538.13 543.242 537.757 544.138C538.214 544.82 538.132 544.467 538.11 545.165C537.174 544.541 536.901 543.613 536.478 542.62ZM543.083 543.682C540.584 547.336 538.32 551.119 536.967 555.36L537.154 556.071L537.484 556.261C537.99 556.447 538.429 556.567 538.916 556.316C540.164 555.674 540.739 554.069 541.317 552.858C543.505 548.277 545.26 543.434 546.942 538.649L543.083 543.682Z"/>
	<path fill="#FFA430" fill-opacity="0.7764706" transform="scale(0.666667 0.666667)" d="M543.083 543.682L546.942 538.649C545.26 543.434 543.505 548.277 541.317 552.858C540.739 554.069 540.164 555.674 538.916 556.316C538.429 556.567 537.99 556.447 537.484 556.261L537.154 556.071L536.967 555.36C538.32 551.119 540.584 547.336 543.083 543.682Z"/>
	<path fill="#FEFEFF" transform="scale(0.666667 0.666667)" d="M596.101 559.803C597.138 558.307 598.293 557.634 599.85 556.789L600.444 556.471C600.568 554.82 600.712 553.67 601.471 552.188L602.588 551.518C605.1 549.765 604.023 545.762 604.491 542.982C604.633 542.136 605.015 542.134 605.685 541.657L608.392 543.161L602.288 558.696C600.001 559.776 598.607 559.953 596.101 559.803Z"/>
	<path fill="#FEFEFF" fill-opacity="0.72941178" transform="scale(0.666667 0.666667)" d="M536.478 542.62C536.901 543.613 537.174 544.541 538.11 545.165C538.132 544.467 538.214 544.82 537.757 544.138C538.13 543.242 538.503 543.056 539.098 542.37L539.267 542.058L541.125 541.688L541.205 542.771C541.871 542.931 541.994 542.937 542.625 542.812L542.438 543.375L541.781 543.656L541.5 544.312L542.172 544.016L543.083 543.682C540.584 547.336 538.32 551.119 536.967 555.36C536.47 554.997 536.06 554.644 535.451 554.489L535.125 554.434L534.934 554.062L534.188 553.875L533.531 554.156L532.875 554.062L532.311 554.156L531.14 553.617L530.812 553.5C531.366 552.885 531.611 552.571 531.829 551.751C532.018 551.038 532.207 550.498 532.521 549.833C533.344 550.333 532.911 550.254 533.809 550.125L533.438 549.566L534.184 548.625L533.812 548.066C533.785 547.477 533.726 547.044 533.984 546.492C534.254 545.914 534.037 545.545 533.917 544.918L536.478 542.62Z"/>
	<defs>
		<linearGradient id="gradient_5" gradientUnits="userSpaceOnUse" x1="529.08826" y1="555.74994" x2="531.09167" y2="557.95001">
			<stop offset="0" stop-color="white" stop-opacity="0.7019608"/>
			<stop offset="1" stop-color="white" stop-opacity="0.73725492"/>
		</linearGradient>
	</defs>
	<path fill="url(#gradient_5)" transform="scale(0.666667 0.666667)" d="M533.917 544.918C534.037 545.545 534.254 545.914 533.984 546.492C533.726 547.044 533.785 547.477 533.812 548.066L534.184 548.625L533.438 549.566L533.809 550.125C532.911 550.254 533.344 550.333 532.521 549.833C532.207 550.498 532.018 551.038 531.829 551.751C531.611 552.571 531.366 552.885 530.812 553.5L531.14 553.617L532.311 554.156L532.875 554.062L533.531 554.156L534.188 553.875L534.934 554.062L535.125 554.434L535.451 554.489C536.06 554.644 536.47 554.997 536.967 555.36L537.154 556.071C534.635 556.039 532.858 556.855 530.985 558.586C530.106 559.399 529.536 560.397 529.316 561.562C530.143 561.704 530.917 561.616 531.75 561.566L531.935 562.32L530.423 563.048L530.593 563.498L530.635 563.674C528.832 564.598 527.029 564.626 525.173 565.282C523.856 565.748 522.21 565.885 520.818 565.954L522.722 565.226C523.481 564.956 522.912 564.494 523.447 563.941C524.674 562.674 526.1 562.973 527.039 561.562C526.588 560.627 526.002 559.33 525.936 558.281C525.799 556.118 527.161 555.569 528.301 554.008C528.985 553.074 529.411 552.697 530.492 552.23L530.812 552.1L531.802 549.375L532.312 548.863C532.263 548.047 532.456 547.776 532.793 547.061L532.94 546.756L532.69 546.159L533.917 544.918Z"/>
	<path fill="#FEFEFF" fill-opacity="0.52156866" transform="scale(0.666667 0.666667)" d="M532.69 546.159L532.94 546.756L532.793 547.061C532.456 547.776 532.263 548.047 532.312 548.863L531.802 549.375L530.812 552.1L530.492 552.23C529.411 552.697 528.985 553.074 528.301 554.008C527.161 555.569 525.799 556.118 525.936 558.281C526.002 559.33 526.588 560.627 527.039 561.562C526.1 562.973 524.674 562.674 523.447 563.941C522.912 564.494 523.481 564.956 522.722 565.226L520.818 565.954C519.563 566.164 518.4 566.453 517.19 566.846C517.076 566.201 516.945 565.669 517.046 565.015C517.142 564.388 517.127 564.709 517.13 564L517.124 563.542C517.932 561.719 519.816 559.658 521.095 558.137C524.674 553.881 528.477 549.799 532.69 546.159Z"/>
	<path fill="#BDE7FC" transform="scale(0.666667 0.666667)" d="M524.194 499.979L530.97 503.724C533.21 507.022 533.86 511.117 536.339 514.488L536.616 514.928C539.467 519.5 541.072 525.567 545.299 529.074C546.963 530.455 549.284 531.383 551.336 532.035L536.478 542.62L533.917 544.918L532.69 546.159C528.477 549.799 524.674 553.881 521.095 558.137C519.816 559.658 517.932 561.719 517.124 563.542L517.13 564C517.127 564.709 517.142 564.388 517.046 565.015C516.945 565.669 517.076 566.201 517.19 566.846C516.02 567.09 514.898 567.233 513.797 567.687C511.921 568.459 508.083 567.933 506.067 567.596L503.488 566.816L503.91 533.063C503.992 527.773 503.507 522.059 504.242 516.84L504.783 517.78L505.398 517.688C506.73 517.134 508.602 515.289 509.789 514.327C515.03 510.08 520.685 505.8 524.194 499.979Z"/>
	<path fill="#8CF" transform="scale(0.666667 0.666667)" d="M506.067 567.596C506.979 567.373 507.9 567.209 508.671 566.646C511.146 564.839 513.786 564.248 516.297 562.7L516.903 562.312L517.124 563.542L517.13 564C517.127 564.709 517.142 564.388 517.046 565.015C516.945 565.669 517.076 566.201 517.19 566.846C516.02 567.09 514.898 567.233 513.797 567.687C511.921 568.459 508.083 567.933 506.067 567.596Z"/>
	<path fill="#0093FF" transform="scale(0.666667 0.666667)" d="M529.266 85.7204C549.144 95.1081 566.704 109.709 582.643 124.655L605.333 146.349C607.357 147.701 609.318 149.069 611.043 150.802L625.427 166.634L642.272 184.385L649.407 191.985C650.319 193.002 651.639 194.221 652.297 195.407C652.775 197.368 652.944 198.929 651.867 200.722C651.435 201.441 650.871 202.047 650.336 202.688C649.913 203.195 649.675 203.66 649.312 204.191L647.441 206.625L646.316 208.125L645.191 209.625L644.066 211.125L643.009 212.484C642.228 213.522 641.383 214.324 640.688 215.441C640.231 216.175 639.634 216.739 639.069 217.378C638.478 218.047 639.176 217.255 638.627 218.252C638.257 218.923 637.557 219.361 637.127 220.127L636.31 221.064L635.627 222.002L635.351 222.364L632.062 227.066C631.596 227.706 631.775 227.493 631.444 228.153C630.953 229.134 630.192 230.023 629.627 231.002L629.066 231.75C628.663 232.302 628.35 232.829 628.045 233.439C627.091 235.344 625.971 235.794 626.09 238.159L644.436 238.069C650.279 238.047 656.945 237.269 662.378 239.639L662.004 239.717C660.884 239.94 658.01 239.668 657.188 240.021C656.917 240.137 656.854 240.507 656.687 240.75C656.977 241.702 657.239 242.463 657.752 243.326C661.522 245.545 664.445 248.15 665.612 252.501C667.641 260.068 666.362 267.38 666.075 275.028L666.022 291.188L666.582 302.812L667.049 381.76L667.048 405.153C667.045 409.254 667.328 413.645 666.877 417.719L518.824 418.299C518.285 416.577 518.409 414.649 518.388 412.853L518.612 400.548L518.588 370.517L503.6 371.022L503.705 316.309L503.216 280.35L501.186 275.503C499.448 272.091 497.113 269.739 493.45 268.46C487.506 266.384 479.651 267.632 473.416 267.728L454.083 267.801C451.453 267.793 447.995 268.228 445.514 267.403C443.046 267.189 440.616 267.161 438.148 267.374L436.391 267.911L424.907 267.985C421.716 267.379 417.969 267.74 414.705 267.728C413.575 263.593 407.992 260.044 404.775 257.369C403.235 256.089 401.841 254.635 400.439 253.207L401.153 253.087C404.912 251.763 409.172 244.115 410.596 240.562C412.913 234.782 413.135 229.175 410.618 223.407C408.906 219.485 405.988 216.563 402.786 213.798C395.949 207.892 388.6 203.987 380.238 200.767L380.268 179.028C380.254 174.387 379.513 169.218 380.687 164.71C381.279 162.286 381.019 159.355 381.037 156.846C384.879 156.971 388.574 157.958 392.275 158.921C394.409 157.848 396.355 156.71 398.138 155.105C401.518 152.061 404.248 148.294 407.241 144.89L431.469 117.328C436.378 112.07 441.671 107.739 447.242 103.221C452.556 111.93 462.44 117.687 472 120.554C483.737 124.073 496.941 121.46 507.507 115.688C520.207 108.749 525.34 99.1338 529.266 85.7204Z"/>
	<path fill="#193FDB" transform="scale(0.666667 0.666667)" d="M626.09 238.159L644.436 238.069C650.279 238.047 656.945 237.269 662.378 239.639L662.004 239.717C660.884 239.94 658.01 239.668 657.188 240.021C656.917 240.137 656.854 240.507 656.687 240.75C656.977 241.702 657.239 242.463 657.752 243.326L625.815 243.487C625.742 241.784 625.9 240.153 626.076 238.464L626.09 238.159Z"/>
	<path fill="#6BBBFF" transform="scale(0.666667 0.666667)" d="M503.216 280.35C506.491 276.271 511.707 275.138 516.468 273.607L516.539 299.412C516.619 301.963 516.606 303.95 517.608 306.317L517.978 307.353C517.212 308.432 516.098 310.563 514.98 311.175C513.778 310.97 513.615 310.793 512.592 311.541C509.307 313.943 506.816 318.445 503.898 321.451L503.705 316.309L503.216 280.35Z"/>
	<path fill="#FEFEFF" transform="scale(0.666667 0.666667)" d="M626.972 265.532C629.814 265.452 632.182 265.473 634.875 266.582C637.724 267.755 640.19 269.98 641.229 272.93C642.491 276.511 641.972 281.418 640.273 284.768C638.352 288.559 635.006 289.842 631.247 291.177C628.509 291.348 625.476 291.465 622.926 290.28C620.188 289.007 617.883 285.726 616.895 282.909C615.687 279.464 616.364 275.24 618.054 272.062C620.075 268.266 623.083 266.778 626.972 265.532Z"/>
	<path fill="#FEFEFF" transform="scale(0.666667 0.666667)" d="M617.075 351.545L630.345 351.474C633.456 351.459 637.083 351.035 640.077 351.869C641.184 352.872 642.433 354.252 642.368 355.875C642.316 357.184 641.527 357.999 640.688 358.907C639.844 359.313 639.103 359.483 638.175 359.525C636.19 359.614 634.156 359.325 632.161 359.304L613.387 359.01L577.688 358.981C574.102 358.989 555.32 359.689 553.359 358.464C551.486 357.293 551.135 354.537 551.01 352.565C552.504 351.455 554.68 351.762 556.496 351.759L568.689 351.752C584.726 351.748 601.074 352.415 617.075 351.545Z"/>
	<path fill="#FEFEFF" transform="scale(0.666667 0.666667)" d="M632.864 371.791C635.121 371.702 639.331 371.342 641.105 372.945C641.909 373.672 642.425 374.518 642.515 375.61C642.644 377.192 641.929 378.638 640.917 379.797C640.434 380.349 639.468 380.504 638.763 380.565C630.615 381.265 622.286 380.656 614.117 380.572L560.676 380.829C558.411 381.05 554.584 381.178 552.541 380.069C551.518 379.513 550.922 378.52 550.722 377.4C550.429 375.759 551.154 374.248 552.056 372.938C553.908 371.987 557.093 372.311 559.16 372.307L572.311 372.297L608.576 372.31C616.646 372.323 624.833 372.662 632.864 371.791Z"/>
	<path fill="#FEFEFF" transform="scale(0.666667 0.666667)" d="M635.394 397.679C636.98 397.573 638.642 397.281 639.938 398.402C641.381 399.652 642.16 401.459 642.344 403.312C641.909 404.883 641.255 405.614 640.129 406.731C639.602 407.255 639.512 407.207 638.763 407.242C630.987 407.609 622.964 406.844 615.162 406.8L558.297 406.779L553.374 406.276C552.36 405.591 551.577 404.961 551.341 403.688C551.055 402.135 551.22 399.653 552.315 398.415C552.655 398.029 552.721 398.088 553.252 397.965C555.141 397.526 557.631 397.889 559.6 397.922L571.388 397.941L606.904 397.951L635.394 397.679Z"/>
	<path fill="#FEFEFF" transform="scale(0.666667 0.666667)" d="M627.651 326.798C631.734 326.706 636.363 326.313 640.312 327.425C641.445 328.342 642.257 329.186 642.448 330.698C642.633 332.173 642.378 333.625 641.395 334.784C640.708 335.592 639.598 335.84 638.584 335.938C632.038 336.568 624.905 336.028 618.305 336.025L565.784 336.13C562.572 336.352 554.972 337.582 552.375 335.673C551.34 334.912 550.79 333.617 550.686 332.361C550.571 330.975 550.903 329.176 551.872 328.136C552.56 327.397 553.448 327.164 554.436 327.08C561.502 326.486 569.011 326.967 576.117 326.973L627.651 326.798Z"/>
	<path fill="#35A0FF" transform="scale(0.666667 0.666667)" d="M503.705 316.309L503.898 321.451C506.816 318.445 509.307 313.943 512.592 311.541C513.615 310.793 513.778 310.97 514.98 311.175C513.786 314.829 514.435 317.603 516.151 320.992L519.134 325.826C518.45 327.478 518.603 329.197 518.593 330.956L518.585 339.891L518.588 370.517L503.6 371.022L503.705 316.309Z"/>
	<path fill="#001E8A" transform="scale(0.666667 0.666667)" d="M381.037 156.846C384.879 156.971 388.574 157.958 392.275 158.921C398.051 161.117 403.875 163.249 409.317 166.208C423.442 173.887 434.583 186.464 441.202 201.059C450.211 220.925 449.209 246.35 445.514 267.403C443.046 267.189 440.616 267.161 438.148 267.374C439.961 261.542 441.545 255.751 442.186 249.655L440.997 250.885L440.399 249.778C440.716 246.911 440.64 243.674 440.471 240.792C439.536 224.789 433.782 207.75 423.698 195.188C419.323 189.737 414.251 185.248 409.037 180.637C403.552 176.133 397.706 172.476 391.402 169.248C387.984 167.497 384.409 165.708 380.687 164.71C381.279 162.286 381.019 159.355 381.037 156.846Z"/>
	<path fill="#193FDB" transform="scale(0.666667 0.666667)" d="M409.037 180.637L409.346 180.53C410.372 180.159 410.932 179.812 411.72 179.063C411.876 177.938 412.056 177.615 411.329 176.656C409.91 174.783 407.461 173.652 405.494 172.472L395.928 166.587C399.514 167.639 402.311 169.447 405.451 171.4C416.135 178.047 426.998 187.456 433.204 198.575C440.01 210.768 442.444 223.342 442.803 237.188C442.905 241.119 443.037 245.783 442.186 249.655L440.997 250.885L440.399 249.778C440.716 246.911 440.64 243.674 440.471 240.792C439.536 224.789 433.782 207.75 423.698 195.188C419.323 189.737 414.251 185.248 409.037 180.637Z"/>
	<path fill="#FEFEFF" transform="scale(0.666667 0.666667)" d="M516.539 299.412C523.436 298.149 530.872 298.832 537.857 298.902L574.214 299.263L617.865 299.259L630.615 299.244C633.759 299.234 636.96 299.054 640.04 299.767C641.782 302.091 643.033 303.833 642.429 306.938C642.166 308.289 641.72 308.752 640.688 309.588C637.393 310.374 633.66 310.051 630.285 310.051L612.607 310.037L546.138 310.032C544.69 316.373 543.164 322.881 537.24 326.611C533.515 328.957 528.306 329.579 524.062 328.404C522.169 327.879 520.709 326.973 519.134 325.826L516.151 320.992C514.435 317.603 513.786 314.829 514.98 311.175C516.098 310.563 517.212 308.432 517.978 307.353L517.608 306.317C516.606 303.95 516.619 301.963 516.539 299.412Z"/>
	<path fill="#0093FF" transform="scale(0.666667 0.666667)" d="M524.652 309.938C525.536 309.742 526.534 309.699 527.438 309.742C529.222 309.826 530.63 311.159 531.7 312.461C532.561 313.507 533.099 315.358 532.885 316.709C532.567 318.721 530.486 320.002 528.938 321.011C528.136 321.334 527.136 321.488 526.276 321.329C524.55 321.01 522.556 319.277 521.663 317.812C520.818 316.428 520.432 314.984 520.968 313.412C521.559 311.679 523.096 310.706 524.652 309.938Z"/>
	<path fill="#BDE7FC" transform="scale(0.666667 0.666667)" d="M380.687 164.71C384.409 165.708 387.984 167.497 391.402 169.248C397.706 172.476 403.552 176.133 409.037 180.637C414.251 185.248 419.323 189.737 423.698 195.188C433.782 207.75 439.536 224.789 440.471 240.792C440.64 243.674 440.716 246.911 440.399 249.778L440.997 250.885L442.186 249.655C441.545 255.751 439.961 261.542 438.148 267.374L436.391 267.911L424.907 267.985C421.716 267.379 417.969 267.74 414.705 267.728C413.575 263.593 407.992 260.044 404.775 257.369C403.235 256.089 401.841 254.635 400.439 253.207L401.153 253.087C404.912 251.763 409.172 244.115 410.596 240.562C412.913 234.782 413.135 229.175 410.618 223.407C408.906 219.485 405.988 216.563 402.786 213.798C395.949 207.892 388.6 203.987 380.238 200.767L380.268 179.028C380.254 174.387 379.513 169.218 380.687 164.71Z"/>
	<path fill="#123DE3" transform="scale(0.666667 0.666667)" d="M440.399 249.778L440.997 250.885L442.186 249.655C441.545 255.751 439.961 261.542 438.148 267.374L436.391 267.911C437.235 261.719 439.711 256.049 440.399 249.778Z"/>
	<path fill="#D3EEFA" transform="scale(0.666667 0.666667)" d="M605.333 146.349C607.357 147.701 609.318 149.069 611.043 150.802L625.427 166.634L642.272 184.385L649.407 191.985C650.319 193.002 651.639 194.221 652.297 195.407C652.775 197.368 652.944 198.929 651.867 200.722C651.435 201.441 650.871 202.047 650.336 202.688C649.913 203.195 649.675 203.66 649.312 204.191L647.441 206.625L646.316 208.125L645.191 209.625L644.066 211.125L643.009 212.484C642.228 213.522 641.383 214.324 640.688 215.441C640.231 216.175 639.634 216.739 639.069 217.378C638.478 218.047 639.176 217.255 638.627 218.252C638.257 218.923 637.557 219.361 637.127 220.127L636.31 221.064L635.627 222.002L635.351 222.364L632.062 227.066C631.596 227.706 631.775 227.493 631.444 228.153C630.953 229.134 630.192 230.023 629.627 231.002L629.066 231.75C628.663 232.302 628.35 232.829 628.045 233.439C627.091 235.344 625.971 235.794 626.09 238.159L626.076 238.464L570.33 239.525L581.761 212.514C586.498 202.04 591.631 191.761 595.546 180.932C597.762 174.804 599.565 168.517 601.071 162.177C602.327 156.888 602.827 151.237 605.333 146.349Z"/>
	<defs>
		<linearGradient id="gradient_6" gradientUnits="userSpaceOnUse" x1="334.25635" y1="618.51276" x2="293.3942" y2="284.68573">
			<stop offset="0" stop-color="#001242"/>
			<stop offset="1" stop-color="#12337E"/>
		</linearGradient>
	</defs>
	<path fill="url(#gradient_6)" transform="scale(0.666667 0.666667)" d="M438.148 267.374C440.616 267.161 443.046 267.189 445.514 267.403C447.995 268.228 451.453 267.793 454.083 267.801L473.416 267.728C479.651 267.632 487.506 266.384 493.45 268.46C497.113 269.739 499.448 272.091 501.186 275.503L503.216 280.35L503.705 316.309L503.6 371.022L518.588 370.517L518.612 400.548L518.388 412.853C518.409 414.649 518.285 416.577 518.824 418.299C518.886 419.629 518.378 420.757 518.292 422.062C517.967 426.962 518.24 432.051 518.229 436.968C518.223 439.486 517.688 443.18 518.664 445.468L518.031 446.062L518.083 479.359L518.268 485.63C518.295 486.12 518.244 487.342 518.418 487.755C519.313 492.734 520.71 496.202 524.194 499.979C520.685 505.8 515.03 510.08 509.789 514.327C508.602 515.289 506.73 517.134 505.398 517.688L504.783 517.78L504.242 516.84C503.507 522.059 503.992 527.773 503.91 533.063L503.488 566.816L495.849 592.625C495.273 594.581 493.641 598.31 493.752 600.199L485.209 627.132L477.87 648.951L219.288 649.128L185.424 648.976L176.775 648.988C175.434 648.99 173.812 648.783 172.539 649.183C170.188 646.302 168.327 642.507 167.127 638.986C166.596 637.43 165.885 636.006 165.153 634.539C164.738 635.159 164.848 635.459 164.827 636.188C163.113 634.777 160.488 632.168 159.49 630.188C160.297 629.872 160.028 630.145 160.362 629.438L159.75 628.892C159.077 629.582 159.467 629.387 158.625 629.557C158.187 629.074 157.59 628.295 156.969 628.065C155.531 627.533 152.872 627.781 151.316 627.785C145.216 627.803 137.967 628.63 132.041 627.513C128.58 626.861 125.027 624.977 122.987 622.028L122.678 621.562C120.97 619.084 120.996 615.122 121.359 612.204L121.44 611.625C122.121 606.408 125.085 603.162 128.384 599.364C125.699 597.536 123.195 596.003 120.835 593.725L120.433 527.589L120.419 521.395L120.847 523.058C123.599 523.051 126.075 523.178 128.799 523.58L132.562 523.6C133.135 522.927 133.488 522.321 133.9 521.538C134.715 519.992 136.069 518.332 137.798 517.782C139.652 517.192 142.216 517.48 144.187 517.473L157.923 517.471L208.102 517.467L303.1 517.469L350.94 517.52C352.744 517.587 354.284 518.264 355.915 518.978C357.22 520.664 359.3 524.371 361.073 525.295C367.104 526.424 374.544 526.177 380.625 525.68C381.434 525.241 382.311 524.754 382.685 523.856C383.437 522.05 383.207 519.451 382.334 517.766C381.359 515.886 380.415 513.841 380.221 511.713C379.756 506.618 380.019 501.329 380.023 496.21L380.049 467.962L379.913 427.416C379.914 419.318 379.676 411.167 380.278 403.087L380.739 368.983C379.727 361.069 380.95 352.366 380.995 344.35L380.587 288.702C380.501 281.757 381.231 274.55 380.71 267.665L384.377 267.801L390.02 268.005L390.406 267.755L414.705 267.728C417.969 267.74 421.716 267.379 424.907 267.985L436.391 267.911L438.148 267.374Z"/>
	<path fill="#1B5CEE" transform="scale(0.666667 0.666667)" d="M414.705 267.728C417.969 267.74 421.716 267.379 424.907 267.985C420.044 274.735 413.627 280.131 405.375 281.991L404.615 281.449L398.493 276.301C396.104 274.079 392.991 268.885 390.02 268.005L390.406 267.755L414.705 267.728Z"/>
	<path fill="#00144D" transform="scale(0.666667 0.666667)" d="M380.71 267.665L384.377 267.801L390.02 268.005C392.991 268.885 396.104 274.079 398.493 276.301L404.615 281.449C400.58 282.54 396.631 283.952 392.687 285.329C390.793 285.99 388.754 286.442 386.941 287.295L386.998 323.23C387.003 328.641 386.592 334.369 386.949 339.75C387.603 349.621 390.43 359.332 391.563 369.175L380.739 368.983C379.727 361.069 380.95 352.366 380.995 344.35L380.587 288.702C380.501 281.757 381.231 274.55 380.71 267.665Z"/>
	<path fill="#FEFEFF" transform="scale(0.666667 0.666667)" d="M133.586 542.695L134.09 542.858C136.793 543.769 138.459 545.41 141.515 545.785C148.157 546.599 155.592 545.984 162.303 545.981L203.639 545.97L342.099 545.965C345.974 545.961 349.202 545.538 352.926 544.533C353.091 544.489 354.559 544.112 354.639 544.144C354.825 544.22 356.171 546.432 356.373 546.734C356.265 548.423 355.406 550.203 354.264 551.438C352.717 553.11 350.583 554.037 348.327 554.227C340.353 554.896 331.947 554.205 323.937 554.056L293.912 554.011L201.404 554.004L148.471 554.159L142.493 554.255C141.898 554.264 140.904 554.426 140.38 554.284C139.259 553.98 137.202 551.843 136.323 550.995C135.56 550.259 134.009 548.765 133.712 547.781C133.334 546.525 133.621 544.084 133.586 542.695Z"/>
	<path fill="#D3EEFA" transform="scale(0.666667 0.666667)" d="M503.6 371.022L518.588 370.517L518.612 400.548L518.388 412.853C518.409 414.649 518.285 416.577 518.824 418.299C518.886 419.629 518.378 420.757 518.292 422.062C517.967 426.962 518.24 432.051 518.229 436.968C518.223 439.486 517.688 443.18 518.664 445.468L518.031 446.062L518.083 479.359L518.268 485.63C518.295 486.12 518.244 487.342 518.418 487.755C519.313 492.734 520.71 496.202 524.194 499.979C520.685 505.8 515.03 510.08 509.789 514.327C508.602 515.289 506.73 517.134 505.398 517.688L504.783 517.78L504.242 516.84L503.6 371.022Z"/>
	<path fill="#FEFEFF" transform="scale(0.666667 0.666667)" d="M380.739 368.983L391.563 369.175C397.894 369.765 404.532 369.362 410.912 369.373C413.693 369.378 416.706 369.152 419.445 369.701L489.491 370.222L489.754 403.245L404.826 403.091L380.278 403.087L380.739 368.983Z"/>
	<path fill="#BAB8BD" transform="scale(0.666667 0.666667)" d="M380.739 368.983L391.563 369.175C397.894 369.765 404.532 369.362 410.912 369.373C413.693 369.378 416.706 369.152 419.445 369.701L392.437 369.709L396.841 402.685C399.41 402.731 402.316 402.553 404.826 403.091L380.278 403.087L380.739 368.983Z"/>
	<path fill="#006298" transform="scale(0.666667 0.666667)" d="M128.799 523.58L132.562 523.6C133.135 522.927 133.488 522.321 133.9 521.538C134.715 519.992 136.069 518.332 137.798 517.782C139.652 517.192 142.216 517.48 144.187 517.473L157.923 517.471L208.102 517.467L303.1 517.469L350.94 517.52C352.744 517.587 354.284 518.264 355.915 518.978C357.22 520.664 359.3 524.371 361.073 525.295L360.055 525.579C359.714 528.569 359.732 531.845 358.993 534.75C358.355 537.255 357.059 539.725 356.619 542.25C356.37 543.683 356.587 545.246 356.373 546.734C356.171 546.432 354.825 544.22 354.639 544.144C354.559 544.112 353.091 544.489 352.926 544.533C349.202 545.538 345.974 545.961 342.099 545.965L203.639 545.97L162.303 545.981C155.592 545.984 148.157 546.599 141.515 545.785C138.459 545.41 136.793 543.769 134.09 542.858L133.586 542.695L133.163 524.049L128.799 523.58Z"/>
	<path fill="#193FDB" transform="scale(0.666667 0.666667)" d="M128.384 599.364L493.752 600.199L485.209 627.132L477.87 648.951L219.288 649.128L185.424 648.976L176.775 648.988C175.434 648.99 173.812 648.783 172.539 649.183C170.188 646.302 168.327 642.507 167.127 638.986C166.596 637.43 165.885 636.006 165.153 634.539C164.738 635.159 164.848 635.459 164.827 636.188C163.113 634.777 160.488 632.168 159.49 630.188C160.297 629.872 160.028 630.145 160.362 629.438L159.75 628.892C159.077 629.582 159.467 629.387 158.625 629.557C158.187 629.074 157.59 628.295 156.969 628.065C155.531 627.533 152.872 627.781 151.316 627.785C145.216 627.803 137.967 628.63 132.041 627.513C128.58 626.861 125.027 624.977 122.987 622.028L122.678 621.562C120.97 619.084 120.996 615.122 121.359 612.204L121.44 611.625C122.121 606.408 125.085 603.162 128.384 599.364Z"/>
	<path fill="#00144D" transform="scale(0.666667 0.666667)" d="M165.153 634.539C165.1 632.531 162.706 629.084 161.717 627.223C169.65 625.935 178.146 626.538 186.176 626.534L225.092 626.521L369.955 626.741L450.553 626.697L471.589 626.699C476.061 626.703 480.797 626.366 485.209 627.132L477.87 648.951L219.288 649.128L185.424 648.976L176.775 648.988C175.434 648.99 173.812 648.783 172.539 649.183C170.188 646.302 168.327 642.507 167.127 638.986C166.596 637.43 165.885 636.006 165.153 634.539Z"/>
	<defs>
		<linearGradient id="gradient_7" gradientUnits="userSpaceOnUse" x1="201.25647" y1="541.4632" x2="303.18115" y2="123.79514">
			<stop offset="0" stop-color="#002BE5"/>
			<stop offset="1" stop-color="#0152FF"/>
		</linearGradient>
	</defs>
	<path fill="url(#gradient_7)" transform="scale(0.666667 0.666667)" d="M297.902 138.472L345.69 138.281C352.564 138.288 360.571 137.508 367.312 138.928C372.168 140.942 376.049 143.073 378.145 148.172C378.803 149.772 379.056 151.352 379.171 153.068C379.215 153.729 379.104 155.286 379.312 155.838C379.452 156.207 379.858 156.408 380.13 156.693L381.037 156.846C381.019 159.355 381.279 162.286 380.687 164.71C379.513 169.218 380.254 174.387 380.268 179.028L380.238 200.767C388.6 203.987 395.949 207.892 402.786 213.798C405.988 216.563 408.906 219.485 410.618 223.407C413.135 229.175 412.913 234.782 410.596 240.562C409.172 244.115 404.912 251.763 401.153 253.087L400.439 253.207C401.841 254.635 403.235 256.089 404.775 257.369C407.992 260.044 413.575 263.593 414.705 267.728L390.406 267.755L390.02 268.005L384.377 267.801L380.71 267.665C381.231 274.55 380.501 281.757 380.587 288.702L380.995 344.35C380.95 352.366 379.727 361.069 380.739 368.983L380.278 403.087C379.676 411.167 379.914 419.318 379.913 427.416L380.049 467.962L380.023 496.21C380.019 501.329 379.756 506.618 380.221 511.713C380.415 513.841 381.359 515.886 382.334 517.766C383.207 519.451 383.437 522.05 382.685 523.856C382.311 524.754 381.434 525.241 380.625 525.68C374.544 526.177 367.104 526.424 361.073 525.295C359.3 524.371 357.22 520.664 355.915 518.978C354.284 518.264 352.744 517.587 350.94 517.52L303.1 517.469L208.102 517.467L157.923 517.471L144.187 517.473C142.216 517.48 139.652 517.192 137.798 517.782C136.069 518.332 134.715 519.992 133.9 521.538C133.488 522.321 133.135 522.927 132.562 523.6L128.799 523.58C126.075 523.178 123.599 523.051 120.847 523.058L120.419 521.395L120.238 438.99L119.452 181.401C121.273 173.108 120.303 164.27 120.355 155.824C120.371 153.277 120.181 150.415 120.81 147.938C121.359 145.779 122.394 144.114 123.943 142.524C125.892 140.524 128.078 139.377 130.798 138.79C134.064 138.086 137.847 138.517 141.197 138.507L168.322 138.649L185.691 138.776C188.456 138.784 191.529 138.518 194.247 138.841L197.076 138.733L297.902 138.472Z"/>
	<path fill="#00144D" transform="scale(0.666667 0.666667)" d="M380.311 257.223L380.917 236.152C383.432 237.299 386.591 238.555 388.563 240.54C392.202 244.202 391.551 248.382 391.454 253.08L388.831 254.015L384.094 255.883L380.311 257.223Z"/>
	<path fill="#FEFEFF" transform="scale(0.666667 0.666667)" d="M391.454 253.08C394.486 252.468 397.46 252.029 400.439 253.207C401.841 254.635 403.235 256.089 404.775 257.369C407.992 260.044 413.575 263.593 414.705 267.728L390.406 267.755L390.02 268.005L384.377 267.801L380.71 267.665C379.445 265.287 380.099 259.978 380.311 257.223L384.094 255.883L388.831 254.015L391.454 253.08Z"/>
	<path fill="#BAB8BD" transform="scale(0.666667 0.666667)" d="M384.094 255.883L388.831 254.015C388.352 256.836 388.665 260.763 389.438 263.506C389.831 264.904 390.223 266.313 390.406 267.755L390.02 268.005L384.377 267.801L380.71 267.665C379.445 265.287 380.099 259.978 380.311 257.223L384.094 255.883Z"/>
	<path fill="#FEFEFF" transform="scale(0.666667 0.666667)" d="M380.311 257.223L384.094 255.883C384.776 259.99 384.852 263.675 384.377 267.801L380.71 267.665C379.445 265.287 380.099 259.978 380.311 257.223Z"/>
	<path fill="#FEFEFF" transform="scale(0.666667 0.666667)" d="M137.551 155.355L352.222 155.735C355.86 159.495 355.586 163.788 355.691 168.687C355.756 171.671 356.103 181.837 353.798 183.555C351.855 185.004 344.587 184.241 342.039 184.241L140.11 183.945C138.834 183.889 133.963 183.924 133.167 183.057L134.625 182.911C135.005 182.133 135.048 181.204 134.779 180.376C134.582 179.767 134.049 179.756 133.5 179.521C132.746 179.945 132.863 180.153 132.59 180.938C132.142 177.371 132.318 173.624 132.343 170.031C132.367 166.703 132.23 163.239 132.651 159.938C132.747 161.216 132.831 162.292 133.312 163.488L133.845 160.5C133.922 159.56 133.695 159.462 133.092 158.812C133.548 157.887 134.231 157.245 135.034 156.612C135.795 156.012 136.65 155.681 137.551 155.355Z"/>
	<path fill="#FEFEFF" transform="scale(0.666667 0.666667)" d="M137.885 447.54C146.647 447.154 155.548 447.733 164.333 447.739L225.847 447.756L283.125 447.731L348.447 447.445C349.652 447.469 350.771 447.555 351.785 448.265C352.746 448.939 353.066 449.789 353.25 450.913C353.811 454.337 354.044 473.903 352.448 475.785C351.184 477.276 348.768 477.047 346.966 477.159C346.081 477.41 344.646 477.263 343.713 477.279L334.411 477.043L319.643 477.004L204.5 476.75L157.83 476.744C150.221 476.745 142.189 477.256 134.625 476.629C133.704 476.553 132.789 476.437 131.989 475.94C131.481 475.624 131.464 474.897 131.371 474.347C130.736 470.616 130.91 466.484 130.84 462.699C130.781 459.504 130.42 455.961 130.97 452.812C131.164 451.7 131.55 450.01 132.321 449.139C133.689 447.591 135.975 447.7 137.885 447.54Z"/>
	<path fill="#FEFEFF" transform="scale(0.666667 0.666667)" d="M135.442 377.062C137.457 376.521 139.834 376.744 141.916 376.742L152.98 376.736L192.754 376.745L293.537 376.729L344.161 376.764C346.906 376.831 349.471 376.822 351.486 378.938C352.412 381.106 352.205 383.358 352.275 385.66L352.501 396.538C352.515 398.241 352.874 400.998 352.353 402.603C351.774 404.389 350.514 405.052 348.96 405.941C345.354 407.015 341.172 406.727 337.438 406.603L327.747 406.511L293.255 406.502L136.545 406.489C134.831 405.188 133.575 403.644 132.483 401.799L132.391 387.095C132.365 384.989 131.907 381.666 132.595 379.681C133.058 378.343 134.251 377.659 135.442 377.062Z"/>
	<path fill="#FEFEFF" transform="scale(0.666667 0.666667)" d="M132.538 225.562L133.025 225.451C135.621 225.087 138.512 225.284 141.132 225.282L155.271 225.274L203.184 225.264L300.039 225.472L347.392 225.333C349.287 225.385 350.271 225.51 351.783 226.688C352.211 227.418 352.425 227.866 352.466 228.731L352.676 245.859C352.625 247.831 352.791 250.502 352.246 252.38C351.9 253.576 351.251 254.479 350.438 255.401C348.601 255.991 346.312 255.758 344.402 255.759L332.423 255.76L288.75 255.762L183.005 256.054L149.983 256.045C144.833 256.044 139.357 256.454 134.25 255.983C132.895 255.859 131.986 255.544 131.137 254.438C130.768 253.957 130.584 253.346 130.53 252.75C130.073 247.687 130.529 242.289 130.485 237.188C130.46 234.275 129.849 230.622 130.522 227.812C130.821 226.566 131.562 226.213 132.538 225.562Z"/>
	<path fill="#FEFEFF" transform="scale(0.666667 0.666667)" d="M135.371 301.974C138.738 301.561 142.254 301.734 145.645 301.727L167.062 301.946L232.991 301.976L313.125 301.958L338.981 301.735C342.717 301.735 346.662 301.478 350.379 301.803C351.773 301.925 352.903 302.59 353.732 303.721C354.882 305.288 354.685 308.339 354.775 310.243C355.081 316.789 355.348 323.693 354.331 330.188C353.566 331.552 352.453 331.885 351.067 332.492L296.995 332.559L197.27 332.555L153.669 332.548L141.783 332.548C139.735 332.549 137.417 332.724 135.411 332.376C134.312 332.185 133.257 331.663 132.632 330.711C130.407 327.321 131.192 308.879 132.019 304.312C132.842 302.882 133.89 302.58 135.371 301.974Z"/>
</svg>
